<?xml version="1.0" encoding="UTF-8"?>
<svg width="1124px" height="940px" viewBox="0 0 1124 940" version="1.1" xmlns="http://www.w3.org/2000/svg" xmlns:xlink="http://www.w3.org/1999/xlink">
    <title>Account Center background Copy</title>
    <defs>
        <filter x="-2.8%" y="-5.4%" width="105.7%" height="110.9%" filterUnits="objectBoundingBox" id="filter-1">
            <feGaussianBlur stdDeviation="10" in="SourceGraphic"></feGaussianBlur>
        </filter>
        <filter x="-2.5%" y="-5.5%" width="105.1%" height="111.1%" filterUnits="objectBoundingBox" id="filter-2">
            <feGaussianBlur stdDeviation="10" in="SourceGraphic"></feGaussianBlur>
        </filter>
        <filter x="-4.1%" y="-7.4%" width="108.3%" height="114.8%" filterUnits="objectBoundingBox" id="filter-3">
            <feGaussianBlur stdDeviation="10" in="SourceGraphic"></feGaussianBlur>
        </filter>
        <filter x="-3.0%" y="-7.6%" width="106.1%" height="115.3%" filterUnits="objectBoundingBox" id="filter-4">
            <feGaussianBlur stdDeviation="10" in="SourceGraphic"></feGaussianBlur>
        </filter>
    </defs>
    <g id="0.0-login-/-Sign-up" stroke="none" stroke-width="1" fill="none" fill-rule="evenodd" opacity="0.1">
        <g id="Account-Center-background-Copy" transform="translate(-796.000000, -140.000000)" fill="#000000">
            <g id="Group-4" transform="translate(839.000000, 186.000000)">
                <path d="M993.543079,602.934808 C979.820029,588.734908 965.174629,575.193358 949.946779,562.734208 C910.752679,530.811658 868.166179,503.816008 823.020529,481.376008 C788.697229,464.331508 753.713929,448.437058 718.017829,434.572108 C683.686279,421.213708 648.521479,409.383208 612.909529,400.075558 C574.551979,390.027058 535.387579,382.316608 496.206679,376.053208 C427.947829,365.166508 359.297929,364.056058 290.925229,374.987308 C258.887179,380.127058 227.395279,388.329208 196.731679,399.684508 C154.268929,415.407358 115.142479,436.496008 81.3851288,466.839508 C71.1204788,476.054758 61.2666788,485.699008 51.7593788,495.696358 C48.8553788,498.709258 48.5253788,503.992558 45.9612788,507.431158 C42.5952788,511.955458 37.2591788,515.110258 34.4657288,519.873808 C29.4629288,528.260758 25.5903788,537.380308 21.4406288,546.242458 C10.4400788,569.581708 4.34662879,594.272308 1.43272879,619.787908 C-1.57687121,645.645058 0.330528786,671.551708 5.51152879,696.745558 C12.1082288,728.689558 20.1833288,760.450408 29.8391288,791.613958 C37.7855288,817.198858 48.1244288,842.108908 58.9253288,866.662558 C66.8337788,884.647558 77.1578288,901.573258 86.4242288,918.962608 C87.3267788,918.616108 88.3035788,918.254758 89.2061288,917.888458 C89.0708288,916.540408 89.1599288,915.114808 88.7259788,913.839358 C85.4144288,903.371758 81.4329788,893.065858 78.7913288,882.438208 C72.5081288,857.249308 69.3368288,831.613258 71.6913788,805.660408 C72.8991788,793.364608 75.1365788,781.042408 78.2319788,769.084858 C83.1588788,750.119758 89.3216288,731.379058 100.756129,715.207408 C133.681879,668.789608 179.979229,641.008558 232.774279,623.251258 C261.045379,613.745608 290.167879,607.066408 319.965229,604.888408 C345.998929,603.007408 372.126679,600.783208 398.072929,601.486108 C455.388979,603.025558 511.475779,612.509758 566.468629,628.919008 C604.740379,640.337008 641.810929,654.527008 677.645629,672.071458 C713.409379,689.556508 747.064429,710.249158 779.222929,733.731958 C821.494279,764.598508 857.121079,801.933058 887.608129,843.976708 C905.924779,869.274508 934.857529,876.219358 962.688079,866.725258 C978.440629,861.357808 992.180179,852.964258 1005.13268,843.052708 C1031.04263,823.160308 1048.59533,797.200858 1056.44438,765.534058 C1063.49648,737.231608 1059.06788,709.387858 1048.17623,682.735408 C1035.76163,652.281358 1016.15963,626.389558 993.543079,602.934808" id="Fill-1" filter="url(#filter-1)"></path>
                <path d="M1171.95725,500.439778 C1171.44905,496.809778 1169.08955,493.452028 1167.9164,489.889678 C1163.0687,475.803628 1159.6565,461.090578 1153.37,447.704128 C1133.1542,404.594578 1103.73305,367.829278 1068.86525,335.992528 C1044.06575,313.392478 1017.6212,292.450678 990.363199,272.781028 C968.235049,256.771078 944.364499,242.818678 920.370199,229.684678 C895.875949,216.298228 870.642499,204.188878 845.055949,193.011778 C818.254999,181.316578 790.935949,170.875378 763.440349,160.881328 C744.777199,154.080028 725.439199,148.651528 706.249699,143.214778 C685.329349,137.284678 664.443649,130.785328 643.105849,126.828628 C609.067999,120.484378 574.757899,115.019578 540.279499,111.033178 C489.546949,105.167428 438.443149,105.244978 387.705649,111.237778 C351.095449,115.540978 315.042949,122.670628 279.924349,134.849278 C243.076549,147.654928 208.624549,164.427178 177.225049,187.576678 C147.061399,209.774128 121.382449,236.547028 101.087449,267.639628 C84.8596988,292.378078 71.3082488,318.934828 57.6973988,345.268828 C50.2740488,359.524828 44.9115488,374.864878 39.1975988,389.944228 C34.3630988,402.711928 29.7397988,415.636378 26.1279488,428.791828 C21.0096488,447.286678 16.5364988,466.002628 12.4296488,484.763128 C7.98949879,505.317178 4.27369879,526.027978 0.488598786,546.697528 C0.062898786,548.799628 1.16179879,551.180578 1.53469879,553.442728 C8.60824879,529.509478 15.7626488,506.627278 25.9546988,484.505728 C41.4927488,450.822628 62.5648988,421.375078 89.1199988,395.849578 C138.717349,348.159628 199.280599,321.196978 264.991849,304.685428 C282.668299,300.265078 300.849649,298.314778 318.936949,295.554328 C343.073149,292.305478 382.423999,288.797578 424.710199,290.005378 C478.615699,292.084378 532.275349,296.902378 585.085249,309.467128 C620.533849,317.901928 656.076499,325.993528 690.134149,339.058228 C719.819299,350.438278 750.175999,360.445528 778.758949,374.178478 C814.755349,391.475428 850.042249,410.729278 884.287999,431.367478 C923.483749,455.031778 959.595649,483.421678 993.255649,514.614928 C1022.0597,541.264078 1048.68905,569.833828 1072.124,601.360378 C1081.4036,613.850878 1090.34495,627.019528 1101.73655,637.421128 C1120.76435,654.871528 1137.59435,653.407978 1152.6605,634.340578 C1162.4681,621.884728 1169.4641,607.435678 1172.48855,591.914128 C1175.39585,577.082278 1177.23395,561.760378 1177.08357,546.681028 C1176.93695,531.237028 1174.08245,515.806228 1171.95725,500.439778" id="Fill-4" filter="url(#filter-2)"></path>
                <path d="M698.699794,775.839133 C675.190594,761.964283 650.608894,749.986933 626.286244,737.400733 C591.227044,719.207833 554.347894,705.488083 515.726344,697.315633 C485.293744,690.864133 454.372744,686.362933 423.651394,680.995483 C423.618394,681.526783 423.514444,682.033333 423.408844,682.541533 C420.117094,682.335283 416.830294,682.056433 413.533594,681.960733 C410.236894,681.846883 406.920394,682.063033 403.623694,681.929383 C352.501744,679.969183 302.313694,685.371283 253.376344,701.331733 C219.051394,712.551733 187.513294,728.497333 160.177744,752.430583 C133.071544,776.197183 114.664144,805.276783 107.534494,840.677533 C103.727944,859.327483 104.226244,878.409733 107.305144,897.305533 C111.237094,921.337783 120.193294,943.701883 131.946244,964.772383 C150.645694,998.059483 173.117044,1028.55313 201.937594,1053.77173 C228.741844,1077.19513 258.215794,1093.13083 295.850644,1085.34943 C314.220094,1081.55773 329.565094,1073.32093 341.615044,1059.05833 C351.917644,1046.90773 352.971994,1025.29768 344.700544,1015.49503 C329.451244,997.490233 321.593944,976.370233 320.788744,952.790083 C320.198044,934.013083 334.353394,916.615483 353.003344,914.219683 C366.770944,912.436033 380.644144,911.300833 394.451344,911.226583 C422.286844,911.054983 449.708194,915.189883 476.398594,922.765033 C495.297694,928.167133 513.759544,935.852833 532.011844,943.361983 C555.276844,952.907233 576.543694,966.221083 596.038444,982.066033 C614.201644,996.891283 634.046194,1008.29938 656.920144,1013.52493 C672.699094,1017.15328 689.266744,1017.54598 704.827894,1012.88143 C722.631394,1007.60473 740.129644,1001.30173 757.045444,993.785983 C778.340344,984.303433 798.792094,973.061983 814.463794,954.878983 C824.824144,942.952783 830.876344,929.510233 830.402794,913.567933 C829.727944,892.637683 819.474844,875.754883 806.637844,860.305933 C776.794294,824.415133 738.281644,799.214683 698.699794,775.839133" id="Fill-7" filter="url(#filter-3)"></path>
                <path d="M187.619554,165.742063 C204.726754,153.961063 220.972654,140.695063 239.069854,130.684513 C262.113754,117.897013 285.977704,106.081363 310.633654,96.8826134 C340.325404,85.7781134 371.089654,77.5116134 402.883504,73.9162634 C426.765604,71.2036634 450.634504,66.3790634 474.590854,66.0210134 C508.247554,65.5144634 542.019754,67.8624134 575.669854,69.8143634 C592.348054,70.7829134 609.115354,72.6919634 625.509754,75.8632634 C651.117754,80.8017134 676.595404,86.6691134 701.889904,93.0744134 C724.150054,98.7223634 746.466304,104.649163 768.086254,112.311763 C793.945054,121.469263 819.586054,131.770213 844.570354,143.166763 C870.412654,154.947763 895.969504,167.758363 920.719504,181.728913 C953.841604,200.388763 985.963804,220.931263 1015.04505,245.504713 C1039.52445,266.177563 1064.3751,286.779463 1086.429,309.833263 C1108.21725,332.446513 1126.57845,358.224463 1146.80415,382.337563 C1150.15035,386.383363 1154.84295,389.998513 1159.71375,391.953763 C1166.23125,394.580563 1169.32665,390.846613 1167.2559,384.037063 C1165.83525,379.725613 1164.56805,375.334963 1162.6194,371.267713 C1151.6106,347.690863 1140.7569,323.978713 1128.99075,300.761563 C1110.55035,264.497863 1086.0528,232.354213 1058.93175,202.248313 C1026.666,166.370713 990.529354,134.859013 950.759404,107.450863 C919.081054,85.6708634 885.990304,66.4995134 850.488904,51.8755634 C828.801304,42.9408134 806.861254,34.5241634 784.540054,27.4951634 C764.235154,21.1080134 743.362654,16.7586134 722.668354,11.9059634 C716.880154,10.5529634 710.851054,10.6717634 704.947354,9.9919634 C700.573204,9.4986134 696.289804,8.7346634 691.915654,8.2248134 C688.709704,7.8403634 685.330504,7.8865634 682.134454,7.3189634 C675.453604,6.1507634 668.837104,3.9199634 662.182654,3.5041634 C626.710954,1.3278134 591.361354,-1.6306366 555.658654,1.0951634 C522.018454,3.6757634 488.784154,7.9888634 456.000304,15.7075634 C440.576104,19.3342634 425.186554,23.5863134 410.376154,29.1402134 C385.942954,38.3340134 361.420654,47.7423134 337.888354,58.9573634 C301.038904,76.5150134 266.766754,98.6233634 234.517504,123.645613 C217.309654,137.035363 200.776654,151.383763 183.974704,165.313063 C184.312954,165.791563 184.722154,166.294813 185.057104,166.793113 C185.887054,166.441663 186.853954,166.245313 187.619554,165.742063" id="Fill-10" filter="url(#filter-4)"></path>
            </g>
        </g>
    </g>
</svg>